<mxfile host="app.diagrams.net" agent="Mozilla/5.0 (Windows NT 10.0; Win64; x64) AppleWebKit/537.36 (KHTML, like Gecko) Chrome/132.0.0.0 Safari/537.36 Edg/132.0.0.0" version="26.0.8">
  <diagram name="第 1 页" id="WB4rCPhYmJSbZrXX5gV5">
    <mxGraphModel dx="1134" dy="609" grid="0" gridSize="10" guides="1" tooltips="1" connect="1" arrows="1" fold="1" page="0" pageScale="1" pageWidth="1169" pageHeight="827" math="0" shadow="0">
      <root>
        <mxCell id="0" />
        <mxCell id="1" parent="0" />
        <mxCell id="Kqa2XatpkO_NFbjg4wEZ-10" style="edgeStyle=orthogonalEdgeStyle;rounded=0;orthogonalLoop=1;jettySize=auto;html=1;exitX=0;exitY=0.75;exitDx=0;exitDy=0;entryX=1;entryY=0.75;entryDx=0;entryDy=0;" edge="1" parent="1" source="Kqa2XatpkO_NFbjg4wEZ-1" target="Kqa2XatpkO_NFbjg4wEZ-4">
          <mxGeometry relative="1" as="geometry" />
        </mxCell>
        <mxCell id="Kqa2XatpkO_NFbjg4wEZ-11" value="过滤器内不存在直接返回" style="edgeLabel;html=1;align=center;verticalAlign=middle;resizable=0;points=[];" vertex="1" connectable="0" parent="Kqa2XatpkO_NFbjg4wEZ-10">
          <mxGeometry x="0.1179" y="1" relative="1" as="geometry">
            <mxPoint x="13" as="offset" />
          </mxGeometry>
        </mxCell>
        <mxCell id="Kqa2XatpkO_NFbjg4wEZ-1" value="布隆过滤器" style="rounded=1;whiteSpace=wrap;html=1;fillColor=#fff2cc;strokeColor=#d6b656;" vertex="1" parent="1">
          <mxGeometry x="320" y="175" width="120" height="60" as="geometry" />
        </mxCell>
        <mxCell id="Kqa2XatpkO_NFbjg4wEZ-2" value="缓存穿透" style="text;html=1;align=center;verticalAlign=middle;whiteSpace=wrap;rounded=0;fontSize=20;fillColor=#ffe6cc;strokeColor=#d79b00;" vertex="1" parent="1">
          <mxGeometry x="430" y="60" width="100" height="50" as="geometry" />
        </mxCell>
        <mxCell id="Kqa2XatpkO_NFbjg4wEZ-3" value="场景：&lt;div&gt;get请求：&lt;div&gt;&lt;font style=&quot;color: rgb(255, 53, 12);&quot;&gt;api/getbyId?id=1&lt;/font&gt;&lt;/div&gt;&lt;/div&gt;" style="text;html=1;align=center;verticalAlign=middle;resizable=0;points=[];autosize=1;strokeColor=none;fillColor=none;" vertex="1" parent="1">
          <mxGeometry x="220" y="55" width="110" height="60" as="geometry" />
        </mxCell>
        <mxCell id="Kqa2XatpkO_NFbjg4wEZ-5" style="edgeStyle=orthogonalEdgeStyle;rounded=0;orthogonalLoop=1;jettySize=auto;html=1;exitX=1;exitY=0.25;exitDx=0;exitDy=0;entryX=0;entryY=0.25;entryDx=0;entryDy=0;" edge="1" parent="1" source="Kqa2XatpkO_NFbjg4wEZ-4" target="Kqa2XatpkO_NFbjg4wEZ-1">
          <mxGeometry relative="1" as="geometry" />
        </mxCell>
        <mxCell id="Kqa2XatpkO_NFbjg4wEZ-7" value="Text" style="edgeLabel;html=1;align=center;verticalAlign=middle;resizable=0;points=[];" vertex="1" connectable="0" parent="Kqa2XatpkO_NFbjg4wEZ-5">
          <mxGeometry x="0.0559" relative="1" as="geometry">
            <mxPoint x="-9" as="offset" />
          </mxGeometry>
        </mxCell>
        <mxCell id="Kqa2XatpkO_NFbjg4wEZ-9" value="在布隆过滤器内查找" style="edgeLabel;html=1;align=center;verticalAlign=middle;resizable=0;points=[];" vertex="1" connectable="0" parent="Kqa2XatpkO_NFbjg4wEZ-5">
          <mxGeometry x="-0.0718" y="-2" relative="1" as="geometry">
            <mxPoint as="offset" />
          </mxGeometry>
        </mxCell>
        <mxCell id="Kqa2XatpkO_NFbjg4wEZ-4" value="根据Id查找内容" style="rounded=1;whiteSpace=wrap;html=1;fillColor=#f8cecc;strokeColor=#b85450;" vertex="1" parent="1">
          <mxGeometry x="50" y="175" width="120" height="60" as="geometry" />
        </mxCell>
        <mxCell id="Kqa2XatpkO_NFbjg4wEZ-15" style="edgeStyle=orthogonalEdgeStyle;rounded=0;orthogonalLoop=1;jettySize=auto;html=1;entryX=0.5;entryY=1;entryDx=0;entryDy=0;" edge="1" parent="1" source="Kqa2XatpkO_NFbjg4wEZ-12" target="Kqa2XatpkO_NFbjg4wEZ-4">
          <mxGeometry relative="1" as="geometry">
            <mxPoint x="620" y="321" as="targetPoint" />
            <Array as="points">
              <mxPoint x="619" y="270" />
              <mxPoint x="110" y="270" />
            </Array>
          </mxGeometry>
        </mxCell>
        <mxCell id="Kqa2XatpkO_NFbjg4wEZ-16" value="命中，返回结果" style="edgeLabel;html=1;align=center;verticalAlign=middle;resizable=0;points=[];" vertex="1" connectable="0" parent="Kqa2XatpkO_NFbjg4wEZ-15">
          <mxGeometry x="0.0687" y="1" relative="1" as="geometry">
            <mxPoint as="offset" />
          </mxGeometry>
        </mxCell>
        <mxCell id="Kqa2XatpkO_NFbjg4wEZ-17" style="edgeStyle=orthogonalEdgeStyle;rounded=0;orthogonalLoop=1;jettySize=auto;html=1;" edge="1" parent="1" source="Kqa2XatpkO_NFbjg4wEZ-12" target="Kqa2XatpkO_NFbjg4wEZ-19">
          <mxGeometry relative="1" as="geometry">
            <mxPoint x="750" y="205" as="targetPoint" />
          </mxGeometry>
        </mxCell>
        <mxCell id="Kqa2XatpkO_NFbjg4wEZ-24" value="未命中，查询数据库" style="edgeLabel;html=1;align=center;verticalAlign=middle;resizable=0;points=[];" vertex="1" connectable="0" parent="Kqa2XatpkO_NFbjg4wEZ-17">
          <mxGeometry x="-0.1753" relative="1" as="geometry">
            <mxPoint as="offset" />
          </mxGeometry>
        </mxCell>
        <mxCell id="Kqa2XatpkO_NFbjg4wEZ-12" value="" style="image;sketch=0;aspect=fixed;html=1;points=[];align=center;fontSize=12;image=img/lib/mscae/Cache_Redis_Product.svg;" vertex="1" parent="1">
          <mxGeometry x="580" y="172.5" width="77.38" height="65" as="geometry" />
        </mxCell>
        <mxCell id="Kqa2XatpkO_NFbjg4wEZ-13" style="edgeStyle=orthogonalEdgeStyle;rounded=0;orthogonalLoop=1;jettySize=auto;html=1;exitX=1;exitY=0.5;exitDx=0;exitDy=0;entryX=-0.034;entryY=0.453;entryDx=0;entryDy=0;entryPerimeter=0;" edge="1" parent="1" source="Kqa2XatpkO_NFbjg4wEZ-1" target="Kqa2XatpkO_NFbjg4wEZ-12">
          <mxGeometry relative="1" as="geometry" />
        </mxCell>
        <mxCell id="Kqa2XatpkO_NFbjg4wEZ-14" value="存在，查询redis缓存" style="edgeLabel;html=1;align=center;verticalAlign=middle;resizable=0;points=[];" vertex="1" connectable="0" parent="Kqa2XatpkO_NFbjg4wEZ-13">
          <mxGeometry x="-0.2014" y="-1" relative="1" as="geometry">
            <mxPoint as="offset" />
          </mxGeometry>
        </mxCell>
        <mxCell id="Kqa2XatpkO_NFbjg4wEZ-25" style="edgeStyle=orthogonalEdgeStyle;rounded=0;orthogonalLoop=1;jettySize=auto;html=1;entryX=0.5;entryY=1;entryDx=0;entryDy=0;" edge="1" parent="1" source="Kqa2XatpkO_NFbjg4wEZ-19" target="Kqa2XatpkO_NFbjg4wEZ-4">
          <mxGeometry relative="1" as="geometry">
            <mxPoint x="840" y="360" as="targetPoint" />
            <Array as="points">
              <mxPoint x="839" y="310" />
              <mxPoint x="110" y="310" />
            </Array>
          </mxGeometry>
        </mxCell>
        <mxCell id="Kqa2XatpkO_NFbjg4wEZ-26" value="2. DB命中，返回结果" style="edgeLabel;html=1;align=center;verticalAlign=middle;resizable=0;points=[];" vertex="1" connectable="0" parent="Kqa2XatpkO_NFbjg4wEZ-25">
          <mxGeometry x="0.0175" y="2" relative="1" as="geometry">
            <mxPoint as="offset" />
          </mxGeometry>
        </mxCell>
        <mxCell id="Kqa2XatpkO_NFbjg4wEZ-19" value="" style="sketch=0;outlineConnect=0;fontColor=#232F3E;gradientColor=none;fillColor=#C925D1;strokeColor=none;dashed=0;verticalLabelPosition=bottom;verticalAlign=top;align=center;html=1;fontSize=12;fontStyle=0;aspect=fixed;pointerEvents=1;shape=mxgraph.aws4.rds_mysql_instance;" vertex="1" parent="1">
          <mxGeometry x="800" y="166" width="78" height="78" as="geometry" />
        </mxCell>
        <mxCell id="Kqa2XatpkO_NFbjg4wEZ-28" style="edgeStyle=orthogonalEdgeStyle;rounded=0;orthogonalLoop=1;jettySize=auto;html=1;entryX=0.498;entryY=1.038;entryDx=0;entryDy=0;entryPerimeter=0;dashed=1;" edge="1" parent="1" source="Kqa2XatpkO_NFbjg4wEZ-19" target="Kqa2XatpkO_NFbjg4wEZ-12">
          <mxGeometry relative="1" as="geometry">
            <Array as="points">
              <mxPoint x="839" y="280" />
              <mxPoint x="619" y="280" />
            </Array>
          </mxGeometry>
        </mxCell>
        <mxCell id="Kqa2XatpkO_NFbjg4wEZ-29" value="1. DB命中，redis缓存" style="edgeLabel;html=1;align=center;verticalAlign=middle;resizable=0;points=[];" vertex="1" connectable="0" parent="Kqa2XatpkO_NFbjg4wEZ-28">
          <mxGeometry x="0.2315" y="-1" relative="1" as="geometry">
            <mxPoint as="offset" />
          </mxGeometry>
        </mxCell>
      </root>
    </mxGraphModel>
  </diagram>
</mxfile>
